<svg xmlns="http://www.w3.org/2000/svg" viewBox="0 0 556.41 57.03"><title>logo1</title><g id="Capa_2" data-name="Capa 2"><g id="Capa_1-2" data-name="Capa 1"><path d="M34.13,56.17H23.33V35.79a7.84,7.84,0,0,0-1.73-5.4,5.76,5.76,0,0,0-4.53-1.95,5.76,5.76,0,0,0-4.54,1.95,7.84,7.84,0,0,0-1.73,5.4V56.17H0V35.79c0-5.55,1.58-9.87,4.68-13A15.93,15.93,0,0,1,16.56,18c5.4,0,9.51,2,12.31,6,2.81-4,6.92-6,12.32-6a15.93,15.93,0,0,1,11.88,4.75c3.1,3.17,4.68,7.49,4.68,13V56.17H47V35.79a7.84,7.84,0,0,0-1.73-5.4,5.76,5.76,0,0,0-4.54-1.95,5.76,5.76,0,0,0-4.53,1.95,7.84,7.84,0,0,0-1.73,5.4Z"/><path d="M83.09,56.88a17.35,17.35,0,0,1-13-5.54A19.12,19.12,0,0,1,64.8,37.52a18.54,18.54,0,0,1,5.69-14A20,20,0,0,1,85,18a19.4,19.4,0,0,1,14,5.33,17.82,17.82,0,0,1,5.55,13.39V56.17H94.54V50.62a12.48,12.48,0,0,1-11.31,6.26ZM93.24,37.44A8.68,8.68,0,0,0,90.79,31a8.57,8.57,0,0,0-6.33-2.52,8.33,8.33,0,0,0-6.27,2.6,9.22,9.22,0,0,0,0,12.67,8.32,8.32,0,0,0,6.27,2.59,8.62,8.62,0,0,0,8.93-8.93Z"/><path d="M113.4,35.86c0-5.55,1.73-9.87,5.11-13s7.78-4.76,13.18-4.76,9.79,1.59,13.18,4.76,5.11,7.48,5.11,13V56.24h-10.8V36.08A7.12,7.12,0,0,0,137,30.53a8.7,8.7,0,0,0-11,0A7,7,0,0,0,123.91,36V56.17h-10.8V35.79Z"/><path d="M194,39.39c0,5.47-1.66,9.79-5,12.89a19.89,19.89,0,0,1-25.63,0c-3.32-3.1-5-7.42-5-12.89V18.79h10.8v20.6a6.79,6.79,0,0,0,1.94,5.18,7.84,7.84,0,0,0,10.08-.07,6.76,6.76,0,0,0,1.95-5.18V18.72H194V39.39Z"/><path d="M239.33,44.28a16.16,16.16,0,0,1-7,9.58A22.6,22.6,0,0,1,220.18,57a18.48,18.48,0,0,1-13.83-5.48,19.21,19.21,0,0,1-5.4-14,18.53,18.53,0,0,1,5.62-14,19.71,19.71,0,0,1,14.25-5.4c5.55,0,10.09,1.66,13.54,5a17.11,17.11,0,0,1,5.19,12.75,27.53,27.53,0,0,1-.58,5.4H213.05A1,1,0,0,0,212,42.34q0,2.16,2.59,3.67a12.13,12.13,0,0,0,6.19,1.51c4.39,0,7.13-1.08,8.14-3.31H239.4ZM221,27a10.83,10.83,0,0,0-6,1.59,7.43,7.43,0,0,0-3.24,4.53H228.1c.65,0,.93-.29.93-.86a4.31,4.31,0,0,0-2.23-3.67A10.31,10.31,0,0,0,221,27.07Z"/><path d="M258.84,0V56.17H248V0Z"/><path d="M308.59,22.9a9.72,9.72,0,0,0-7.27,3c-1.87,1.94-2.81,4.68-2.81,8.14V56.17h-3.6V34c0-3.46-.94-6.2-2.81-8.14a10.43,10.43,0,0,0-14.54,0c-1.88,1.94-2.81,4.68-2.81,8.14V56.17h-3.6V34c0-4.4,1.29-7.92,3.89-10.59a13.24,13.24,0,0,1,9.93-4,14.53,14.53,0,0,1,7.13,1.73,12,12,0,0,1,4.9,5,12.07,12.07,0,0,1,4.89-5A14.56,14.56,0,0,1,309,19.44a13.24,13.24,0,0,1,9.94,4c2.59,2.67,3.89,6.19,3.89,10.59V56.17h-3.6V34c0-3.46-.94-6.2-2.81-8.14a9.72,9.72,0,0,0-7.27-3Z"/><path d="M340.2,51.56a18.19,18.19,0,0,1-5.33-13.4,18.72,18.72,0,1,1,37.44,0,18.95,18.95,0,0,1-32.11,13.4Zm24.19-2.45a15.09,15.09,0,0,0,4.25-11,15.09,15.09,0,0,0-4.25-10.94,15.66,15.66,0,0,0-21.6,0,15.09,15.09,0,0,0-4.25,10.94,15.09,15.09,0,0,0,4.25,11,15.66,15.66,0,0,0,21.6,0Z"/><path d="M404.35,20.16v3.46h-2.81a14.46,14.46,0,0,0-10.37,3.74c-2.66,2.52-4,6-4,10.59V56.17h-3.6V38c0-5.55,1.66-9.87,5-13s7.7-4.75,13-4.75Z"/><path d="M429.76,56.88A18.21,18.21,0,0,1,411,38.16a18.73,18.73,0,1,1,37.45-.07V56.17h-3.6V48.6a17.61,17.61,0,0,1-6.56,5.91,17.82,17.82,0,0,1-8.64,2.37Zm10.73-29.66a15.47,15.47,0,0,0-21.45,0,15.09,15.09,0,0,0-4.25,10.94,15.09,15.09,0,0,0,4.25,11,15.47,15.47,0,0,0,21.45,0,15.09,15.09,0,0,0,4.25-11A15.09,15.09,0,0,0,440.49,27.22Z"/><path d="M466.34,0V56.17h-3.6V0Z"/><path d="M514.72,45.94A16.32,16.32,0,0,1,508,54a19.09,19.09,0,0,1-10.44,2.88,18.39,18.39,0,0,1-13.47-5.18c-3.53-3.46-5.25-8-5.25-13.54a18.11,18.11,0,0,1,18.86-18.72,18,18,0,0,1,12.6,4.68,15.6,15.6,0,0,1,5,12.1,11.61,11.61,0,0,1-.29,2.88h-29.3c-1.87,0-2.81.79-2.81,2.3,0,2.81,1.44,5.55,4.25,8.14a15,15,0,0,0,10.51,3.89,16.28,16.28,0,0,0,7.92-2,12.83,12.83,0,0,0,5.4-5.54h3.67Zm-17.13-23a15.19,15.19,0,0,0-10.37,3.53,13.52,13.52,0,0,0-4.68,9.36H509.4c1.36,0,2-.65,2-1.87,0-2.67-1.29-5.19-3.89-7.57a14.06,14.06,0,0,0-9.86-3.52Z"/><path d="M541.29,57a20.42,20.42,0,0,1-11.23-3,13.2,13.2,0,0,1-5.91-9h4a9.78,9.78,0,0,0,4.68,6.48,18.77,18.77,0,0,0,16.78.22,6.1,6.1,0,0,0,3.17-5.62,5.34,5.34,0,0,0-2.16-4.53,10.57,10.57,0,0,0-5.83-1.87l-7.85-.44a15.26,15.26,0,0,1-8.5-2.66,8.11,8.11,0,0,1-3.1-6.91,8.48,8.48,0,0,1,4-7.64,18.07,18.07,0,0,1,10-2.59c8.86,0,14.33,3.53,16.42,10.51h-4c-1.8-4.82-6-7.2-12.53-7.2a15,15,0,0,0-7.34,1.66A5.42,5.42,0,0,0,529,29.52c0,3.82,2.66,5.91,7.92,6.27l7.92.43c3.67.22,6.55,1.15,8.57,2.88a8.71,8.71,0,0,1,3,7,9,9,0,0,1-4.18,8c-2.8,1.87-6.48,2.8-11,2.8Z"/></g></g></svg>